<?xml version="1.0" standalone="no"?>
<!DOCTYPE svg PUBLIC "-//W3C//DTD SVG 20010904//EN"
 "http://www.w3.org/TR/2001/REC-SVG-20010904/DTD/svg10.dtd">
<svg version="1.0" xmlns="http://www.w3.org/2000/svg"
 width="400.000000pt" height="400.000000pt" viewBox="0 0 400.000000 400.000000"
 preserveAspectRatio="xMidYMid meet">
<metadata>
Created by potrace 1.11, written by Peter Selinger 2001-2013
</metadata>
<g transform="translate(0.000000,400.000000) scale(0.100000,-0.100000)"
fill="#000000" stroke="none">
<path d="M1829 3995 c-2 -1 -30 -5 -61 -9 -31 -3 -67 -8 -80 -10 -13 -3 -36
-8 -53 -10 -95 -15 -203 -45 -315 -86 -47 -17 -95 -34 -107 -37 -13 -3 -23 -9
-23 -14 0 -5 -5 -9 -11 -9 -23 0 -179 -85 -286 -156 -464 -309 -776 -795 -868
-1351 -19 -115 -23 -178 -20 -343 3 -240 26 -380 97 -600 29 -89 140 -329 190
-412 25 -41 100 -150 108 -158 3 -3 17 -21 32 -40 75 -98 211 -235 308 -310
24 -19 51 -41 58 -48 17 -15 135 -96 142 -97 3 0 25 -14 50 -30 84 -54 349
-171 430 -190 8 -2 42 -11 75 -20 73 -20 83 -22 165 -36 36 -6 81 -13 100 -16
91 -16 464 -7 554 12 12 2 35 7 51 9 17 3 41 7 55 10 14 3 36 8 50 11 181 36
485 173 670 303 448 314 758 808 835 1332 4 25 11 70 15 100 13 91 5 415 -14
522 -111 653 -505 1187 -1092 1481 -78 39 -261 113 -304 122 -8 2 -42 11 -75
20 -33 9 -69 18 -80 21 -34 7 -128 23 -170 29 -44 7 -421 16 -426 10z m384
-95 c15 0 17 -6 13 -32 -3 -18 -8 -58 -11 -88 -4 -30 -9 -58 -11 -62 -5 -7
-165 -1 -191 7 -9 3 -13 31 -13 96 l0 91 98 -6 c53 -3 105 -6 115 -6z m-437
-57 c9 -71 11 -93 13 -115 1 -15 12 -16 106 -11 l106 5 -3 -93 -3 -94 -35 -1
c-19 -1 -60 -3 -90 -5 -32 -2 -55 0 -56 6 -4 62 -17 154 -23 164 -7 10 -27 9
-97 -5 -49 -9 -92 -20 -97 -24 -4 -3 2 -42 13 -86 11 -43 20 -82 20 -86 0 -8
-168 -63 -174 -57 -2 2 -17 40 -34 84 -24 64 -34 79 -49 77 -22 -5 -173 -73
-173 -79 0 -2 18 -37 40 -77 45 -82 48 -94 23 -103 -10 -4 -44 -23 -75 -44
l-58 -38 -51 75 c-28 41 -56 74 -62 74 -6 0 -44 -27 -85 -61 l-74 -61 -41 48
c-23 26 -50 56 -59 66 -10 10 -18 22 -18 26 0 9 57 58 129 109 50 36 46 38
105 -50 21 -32 42 -60 47 -62 4 -3 46 19 92 49 l85 55 -39 73 c-21 40 -39 78
-39 84 0 10 138 78 183 89 21 6 25 -1 52 -75 16 -45 32 -83 35 -85 6 -3 157
43 180 55 8 4 14 13 13 18 -1 6 -5 23 -8 39 -3 15 -11 51 -18 78 l-14 50 106
22 c58 12 109 22 113 22 4 1 10 -25 14 -56z m821 -30 c80 -26 81 -27 71 -52
-5 -14 -20 -54 -34 -89 l-23 -63 22 -8 c13 -5 54 -23 91 -40 38 -17 72 -28 77
-25 5 3 22 31 38 62 53 103 44 100 146 36 50 -31 92 -58 94 -60 3 -2 -20 -39
-49 -81 l-54 -77 24 -15 c14 -9 51 -38 83 -65 l59 -49 22 25 c72 85 95 108
104 108 5 0 44 -34 85 -76 l76 -77 -52 -46 c-98 -88 -94 -74 -40 -139 27 -32
55 -68 64 -82 l15 -24 78 55 c64 44 79 51 87 39 110 -177 109 -174 91 -188 -9
-8 -43 -27 -74 -43 -31 -16 -59 -33 -62 -37 -9 -15 72 -187 86 -185 7 2 47 16
88 32 l75 28 23 -66 c48 -142 52 -160 30 -162 -28 -2 -74 -10 -88 -16 -8 -3
-26 -8 -40 -10 -36 -6 -41 -15 -30 -52 5 -19 12 -53 16 -75 3 -23 8 -48 9 -56
2 -8 4 -19 4 -23 1 -5 31 -6 69 -2 125 13 116 15 123 -35 8 -47 4 -380 -4
-415 -2 -11 -8 -42 -11 -70 -11 -75 -62 -268 -98 -365 -32 -87 -138 -302 -164
-331 -8 -8 -14 -19 -14 -24 0 -12 -135 -191 -184 -244 -68 -74 -149 -152 -196
-190 -25 -20 -52 -42 -60 -50 -40 -39 -238 -160 -345 -211 -138 -67 -260 -109
-418 -144 -158 -35 -218 -41 -422 -40 -207 1 -321 16 -500 68 -151 43 -186 56
-313 116 -294 140 -557 366 -744 639 -176 257 -281 531 -323 841 -2 14 -7 73
-10 133 l-7 107 96 0 96 0 1 58 c0 31 2 78 5 103 l4 46 -86 11 c-97 13 -103
16 -99 40 2 9 11 55 20 102 9 46 19 88 21 92 2 4 26 0 52 -8 26 -8 66 -17 89
-20 l41 -6 27 89 c15 48 28 92 28 97 1 4 -35 22 -81 39 -45 18 -82 36 -82 41
0 15 82 196 89 196 12 1 161 -75 161 -82 0 -4 -18 -45 -40 -92 -22 -47 -40
-87 -40 -89 0 -3 37 -20 83 -38 45 -18 84 -34 86 -35 4 -4 -40 -157 -49 -167
-4 -5 -27 -3 -51 3 -45 12 -50 14 -105 25 -30 7 -31 5 -37 -32 -4 -21 -10 -56
-13 -78 -14 -78 -12 -87 21 -91 153 -19 150 -18 148 -44 -5 -50 -4 -306 1
-329 3 -12 8 -43 11 -68 2 -24 7 -48 9 -51 2 -4 7 -23 10 -42 8 -52 50 -186
81 -260 39 -95 71 -153 142 -260 279 -422 757 -681 1263 -683 475 -2 932 219
1216 589 25 32 50 66 57 74 23 28 106 175 133 235 31 69 95 255 88 255 -3 0 0
8 5 18 5 10 12 38 16 62 3 25 8 59 11 75 8 47 13 95 15 162 l2 61 90 1 c50 1
92 3 95 6 5 4 3 81 -2 125 -2 14 -4 37 -5 53 -1 24 -4 27 -28 22 -16 -3 -58
-8 -94 -11 l-67 -6 -11 64 c-6 34 -13 74 -16 88 -4 24 -1 26 85 49 50 13 90
27 90 32 0 13 -49 163 -58 176 -6 10 -27 6 -86 -17 -42 -17 -81 -30 -85 -30
-7 0 -60 109 -62 127 0 5 -5 14 -11 21 -13 16 -19 11 79 61 l82 42 -52 85
c-29 46 -57 84 -63 84 -5 0 -42 -23 -81 -50 l-71 -50 -36 47 c-19 27 -44 60
-55 74 l-21 27 71 63 70 62 -68 69 c-37 37 -72 68 -78 68 -5 0 -37 -29 -70
-65 l-60 -65 -72 57 -72 57 50 70 c27 38 49 75 49 80 0 6 -38 34 -84 63 l-85
52 -42 -82 c-23 -45 -43 -83 -44 -85 -4 -5 -165 72 -165 79 0 4 13 43 30 85
16 43 27 81 22 85 -7 7 -167 59 -181 59 -5 0 -19 -40 -31 -90 -12 -49 -25 -90
-29 -90 -3 1 -33 7 -66 15 -70 17 -60 15 -86 15 -20 0 -21 4 -14 63 3 34 7 75
8 91 2 17 9 30 18 31 16 3 130 -17 167 -29 23 -8 27 -3 36 44 3 14 8 36 11 50
4 14 9 38 12 53 5 26 8 28 37 23 17 -3 68 -18 113 -33z m-457 -377 c111 -13
140 -18 215 -37 327 -84 631 -293 821 -565 130 -186 223 -411 249 -600 35
-261 19 -462 -56 -689 -141 -427 -486 -771 -914 -914 -49 -16 -101 -32 -115
-34 -14 -3 -36 -8 -50 -11 -220 -52 -497 -36 -740 43 -85 27 -288 122 -322
150 -7 6 -49 37 -93 69 -546 400 -731 1144 -440 1766 213 456 683 786 1170
823 39 2 71 6 72 7 4 4 153 -2 203 -8z m-1216 -222 l58 -65 -65 -65 -65 -65
-38 33 c-21 18 -51 44 -66 57 -16 13 -28 29 -28 34 0 13 123 137 136 137 6 0
37 -29 68 -66z m-327 28 c12 -10 42 -37 68 -61 l47 -43 -29 -32 c-44 -46 -93
-112 -93 -124 0 -5 32 -31 70 -58 39 -26 70 -51 70 -55 0 -13 -84 -149 -93
-149 -11 0 -118 55 -141 73 -18 13 -17 17 33 101 29 48 51 88 50 89 -39 24
-136 94 -141 101 -6 9 15 39 99 141 33 40 34 41 60 17z"/>
<path d="M3587 1736 c-10 -7 -19 -22 -21 -33 -8 -41 -18 -133 -15 -134 38 -6
105 -12 144 -13 l50 -1 8 65 c10 82 4 106 -30 117 -45 15 -116 14 -136 -1z
m106 -97 c-4 -13 -11 -18 -20 -15 -8 3 -23 6 -34 6 -21 0 -25 20 -8 37 8 8 20
8 39 1 21 -7 27 -14 23 -29z"/>
<path d="M295 1721 c-22 -3 -47 -6 -55 -6 -22 1 -29 -14 -20 -44 5 -18 13 -26
28 -25 14 0 22 -5 22 -16 0 -35 22 -78 44 -88 27 -12 84 -6 104 11 14 11 12
65 -4 145 -6 29 -10 32 -43 31 -20 -1 -54 -4 -76 -8z m61 -98 c-6 -14 -9 -14
-27 3 l-21 19 24 6 c25 6 33 -3 24 -28z"/>
<path d="M408 1317 c-49 -17 -88 -36 -88 -41 0 -6 10 -34 22 -63 21 -47 26
-51 48 -46 34 8 34 8 22 42 l-11 30 65 21 64 22 -16 31 c-9 18 -17 33 -18 33
0 1 -40 -12 -88 -29z"/>
<path d="M3465 1310 c-40 -77 -41 -73 41 -124 41 -26 80 -47 85 -49 6 -1 16
12 24 30 13 31 13 32 -18 47 -47 23 -96 59 -72 52 28 -7 66 -15 97 -20 22 -4
28 1 38 25 14 32 10 42 -18 44 -94 10 -147 17 -154 21 -4 3 -14 -9 -23 -26z"/>
<path d="M593 980 c-51 -19 -93 -40 -93 -46 0 -6 9 -19 20 -29 20 -18 22 -18
68 -1 82 32 85 30 34 -18 l-51 -48 24 -26 25 -27 70 70 70 70 -37 45 -38 46
-92 -36z"/>
<path d="M3269 985 c-81 -43 -76 -131 9 -174 86 -42 175 14 158 101 -11 61
-109 104 -167 73z m70 -74 c14 -9 9 -41 -7 -41 -15 0 -34 28 -27 40 8 12 16
13 34 1z"/>
<path d="M878 678 c-31 -35 -59 -66 -63 -69 -3 -4 8 -17 25 -29 l31 -22 28 26
c15 14 30 26 33 26 3 0 3 -21 1 -47 -4 -46 -3 -49 30 -70 l34 -21 54 60 c74
83 74 83 39 108 l-29 21 -31 -33 -31 -33 2 30 c3 68 -1 81 -30 98 -16 9 -31
17 -33 17 -3 0 -30 -28 -60 -62z"/>
<path d="M2938 672 c-49 -31 -88 -61 -88 -66 0 -5 7 -18 16 -27 16 -18 18 -18
45 2 l29 20 32 -37 c18 -20 36 -43 41 -50 6 -10 15 -9 43 8 38 23 38 22 -20
86 l-31 34 27 21 c26 21 26 23 10 44 l-17 23 -87 -58z"/>
<path d="M1284 433 c-20 -42 -37 -80 -39 -83 -2 -4 33 -19 78 -34 45 -15 87
-30 93 -32 8 -4 34 34 34 50 0 2 -20 9 -45 16 -25 7 -48 16 -51 21 -2 5 14 2
37 -6 34 -12 44 -13 51 -3 8 13 11 27 9 40 0 4 6 5 14 2 9 -4 19 4 26 20 7 14
10 28 8 29 -8 7 -157 57 -169 57 -6 0 -27 -35 -46 -77z m130 -12 c3 -4 -6 -6
-19 -3 -14 2 -25 6 -25 8 0 8 39 4 44 -5z"/>
<path d="M2340 416 c-3 -2 -27 -7 -55 -10 -68 -9 -95 -17 -95 -26 0 -18 33
-156 39 -162 3 -3 42 0 86 9 44 8 86 15 93 15 17 2 6 50 -14 61 -8 4 -14 17
-14 27 0 12 -7 20 -17 20 -15 0 -16 2 -3 9 8 6 18 7 23 4 5 -3 7 8 5 23 -2 20
-9 30 -23 32 -12 2 -23 1 -25 -2z m-5 -65 c-9 -8 -36 -10 -30 -2 2 4 11 8 20
8 8 0 13 -3 10 -6z m10 -60 c-3 -2 -16 -6 -28 -8 -15 -2 -18 0 -9 5 14 9 45
12 37 3z"/>
<path d="M1727 378 c-8 -28 -1 -38 26 -38 39 0 45 -11 37 -70 -4 -30 -7 -56
-6 -56 0 -1 18 -4 39 -7 42 -6 44 -4 50 61 5 52 10 57 49 57 27 0 32 4 35 28
3 22 0 27 -19 28 -28 1 -62 4 -144 13 -57 6 -62 5 -67 -16z"/>
<path d="M1779 3346 c-2 -2 -26 -6 -54 -9 -27 -3 -78 -13 -112 -22 -35 -9 -71
-18 -80 -20 -42 -8 -198 -68 -241 -92 -87 -49 -157 -105 -232 -189 -95 -105
-243 -378 -255 -471 -2 -18 -7 -38 -10 -44 -13 -19 -8 -253 5 -299 7 -25 14
-52 15 -60 3 -21 40 -110 71 -173 79 -157 201 -288 327 -351 42 -21 94 -42
114 -47 21 -5 45 -11 53 -13 22 -5 129 -19 164 -21 23 -1 36 -13 69 -60 57
-83 123 -143 221 -200 l49 -28 -69 -65 c-82 -75 -202 -185 -261 -237 -24 -21
-47 -34 -54 -30 -15 10 -79 24 -79 19 0 -3 9 -22 19 -43 l20 -38 -24 -39 c-14
-21 -25 -41 -25 -44 0 -3 22 -4 48 -2 43 3 50 1 71 -27 13 -17 27 -31 31 -31
4 0 13 20 19 44 9 38 16 46 46 56 50 16 51 27 6 49 -27 14 -38 26 -36 38 1 10
-2 23 -7 30 -10 13 5 31 74 88 20 17 74 65 121 107 46 43 91 78 98 78 55 0 84
-87 55 -163 -9 -23 -36 -66 -62 -95 -56 -64 -49 -67 16 -6 58 55 84 119 76
190 -5 46 -40 99 -57 88 -5 -3 -9 1 -9 8 0 11 15 13 58 12 31 -1 69 -3 83 -3
19 -1 30 -9 37 -28 26 -67 38 -143 46 -286 2 -31 6 -61 11 -65 8 -7 1 196 -9
261 -4 20 -12 55 -20 76 -12 36 -12 40 5 44 27 7 46 -12 70 -73 25 -65 49
-161 43 -172 -3 -5 -2 -8 3 -8 4 0 9 -23 11 -51 1 -28 7 -58 12 -68 8 -12 9
-5 6 26 -4 45 -5 45 100 59 20 2 40 7 45 10 5 3 9 -13 9 -35 0 -37 -4 -43 -40
-63 -22 -13 -40 -26 -40 -29 0 -3 18 -12 40 -19 36 -12 42 -18 51 -57 6 -24
14 -43 17 -43 3 0 18 14 33 31 24 27 35 31 74 31 49 -1 49 -1 14 49 -17 24
-17 27 1 67 21 47 16 51 -46 33 -25 -7 -34 -5 -53 15 -21 22 -21 24 -5 25 11
0 30 2 44 4 99 16 101 16 120 -7 11 -13 19 -19 20 -15 0 14 -61 131 -86 164
-13 17 -24 34 -24 37 0 9 -38 53 -97 113 -29 29 -53 56 -53 58 0 3 7 5 16 5
35 0 208 -211 264 -322 11 -24 30 -38 30 -23 0 26 -126 220 -176 270 -9 9 -14
18 -12 20 8 9 124 -120 134 -147 3 -10 10 -18 15 -18 5 0 9 -4 9 -10 0 -5 11
-25 24 -45 14 -20 27 -41 29 -48 2 -7 7 -9 11 -6 10 9 -48 114 -99 180 l-43
55 114 155 c62 85 114 157 114 160 0 3 27 20 60 39 33 19 60 39 60 46 0 6 6
17 13 23 26 21 6 81 -27 82 -11 0 -15 3 -8 6 6 2 10 9 7 14 -3 5 0 30 8 56 7
27 12 54 11 61 -1 6 -2 17 -3 22 -2 21 -30 9 -60 -27 -17 -20 -31 -39 -31 -43
0 -4 -17 -12 -37 -18 -57 -17 -100 -60 -121 -120 -13 -36 -32 -64 -60 -87 -22
-19 -42 -35 -45 -35 -2 0 -3 48 -1 108 2 71 -3 131 -13 178 l-16 72 54 63
c179 212 221 327 196 539 -3 30 -10 69 -15 85 -6 17 -18 57 -27 90 -53 181
-168 347 -314 455 -19 14 -46 35 -60 46 -62 50 -207 111 -326 135 -47 10 -269
22 -276 15z m256 -32 c57 -11 170 -46 215 -67 130 -59 371 -272 384 -340 2 -7
14 -50 28 -97 36 -121 51 -173 54 -190 1 -8 10 -53 19 -100 9 -47 18 -96 20
-110 1 -14 6 -47 9 -75 6 -44 2 -59 -27 -120 -19 -38 -52 -93 -73 -121 -58
-76 -116 -144 -124 -144 -3 0 -12 17 -19 38 -17 47 -73 98 -123 110 -94 24
-317 -17 -468 -85 -19 -9 -78 -35 -131 -58 -188 -82 -251 -147 -255 -264 -2
-39 3 -78 12 -99 8 -19 14 -37 14 -39 0 -6 -82 4 -180 22 -66 12 -212 73 -224
94 -7 10 -65 174 -71 196 -1 6 -7 24 -14 40 -6 17 -20 53 -30 80 -11 28 -33
86 -50 130 -17 44 -31 84 -31 88 0 4 -8 27 -19 50 -16 37 -74 184 -77 197 0 3
-4 14 -9 25 -39 97 -40 94 14 209 53 114 176 299 240 363 49 49 151 122 216
155 59 30 295 104 295 93 0 -2 -38 -22 -84 -44 -138 -67 -214 -158 -241 -290
-16 -72 -14 -181 3 -236 53 -173 247 -351 412 -379 19 -3 38 -5 41 -3 3 1 12
-3 20 -9 9 -7 50 -10 109 -9 121 3 147 9 245 56 120 57 210 155 242 262 20 67
24 252 7 287 -7 14 -27 54 -45 90 -58 119 -124 189 -223 238 -73 36 -88 42
-141 49 -62 8 -78 23 -20 18 28 -3 64 -7 80 -11z m-298 0 c-3 -3 -12 -4 -19
-1 -8 3 -5 6 6 6 11 1 17 -2 13 -5z m-67 -8 c0 -2 -7 -7 -16 -10 -8 -3 -12 -2
-9 4 6 10 25 14 25 6z m353 -30 c132 -42 229 -130 304 -280 46 -90 47 -92 46
-186 -1 -52 -4 -111 -8 -130 -27 -139 -181 -279 -358 -325 -68 -17 -232 -12
-266 10 -5 3 -22 7 -38 10 -51 7 -58 10 -113 44 -64 39 -173 146 -215 211 -66
104 -81 261 -35 383 51 135 219 252 405 281 56 8 230 -3 278 -18z m731 -656
c29 -116 41 -230 26 -230 -6 0 -10 15 -11 33 0 17 -2 41 -5 52 -2 11 -6 34 -8
52 -2 18 -7 40 -10 50 -3 10 -8 29 -10 43 -3 14 -12 49 -21 79 -26 94 -26 97
-6 61 10 -19 30 -82 45 -140z m-1896 -187 c28 -72 68 -178 144 -378 16 -44 34
-89 38 -100 4 -11 18 -49 30 -85 22 -65 28 -81 49 -134 17 -42 5 -44 -35 -5
-52 49 -115 134 -157 210 -38 68 -99 209 -91 209 3 0 0 8 -5 18 -17 32 -23 86
-24 198 0 101 5 144 16 144 3 0 18 -35 35 -77z m1547 -358 c64 -26 86 -56 120
-164 25 -83 28 -107 28 -232 0 -111 -1 -117 -33 -177 -41 -77 -81 -120 -151
-164 -94 -59 -201 -85 -347 -86 -88 -1 -96 1 -162 36 -84 45 -184 129 -226
192 -17 25 -42 76 -54 113 -28 82 -22 143 18 201 31 45 129 111 217 146 33 13
83 33 110 46 71 32 208 76 290 93 47 9 162 7 190 -4z m510 -216 c-7 -11 -12
-36 -22 -113 -5 -45 -4 -48 14 -42 15 5 22 1 26 -14 3 -11 1 -20 -4 -20 -5 0
-9 -7 -9 -14 0 -15 -43 -51 -90 -75 -14 -7 -79 -86 -145 -175 -119 -162 -120
-163 -140 -144 -11 11 -39 34 -62 51 -23 18 -42 37 -42 42 0 6 18 28 39 50 21
21 46 55 55 75 10 22 41 53 85 85 54 39 69 56 70 76 0 14 13 46 29 71 22 35
40 50 78 64 52 20 60 25 86 67 10 15 22 27 28 27 6 0 7 -5 4 -11z m-495 -621
c69 -71 177 -224 166 -235 -4 -5 -16 -9 -27 -9 -10 -1 -20 -2 -21 -3 -2 -2
-19 -4 -38 -6 -19 -1 -51 -5 -70 -8 -19 -3 -57 -9 -85 -12 -27 -4 -57 -8 -67
-11 -19 -6 -27 4 -32 43 -8 66 -20 111 -42 161 -35 80 -35 85 11 94 49 10 51
11 95 30 19 9 38 17 42 17 5 1 35 -27 68 -61z m-846 -343 c-3 -6 7 -23 22 -38
l26 -27 -26 -10 c-18 -6 -28 -19 -32 -40 -8 -36 -11 -37 -33 -8 -12 14 -28 21
-49 20 -37 -1 -36 -2 -18 33 10 19 12 35 5 52 -11 31 -11 36 1 28 26 -16 55
-13 73 6 15 16 22 18 27 8 5 -7 6 -17 4 -24z m876 25 c0 -18 38 -30 64 -20 27
10 29 7 17 -25 -5 -12 -3 -32 4 -51 13 -31 12 -31 -19 -32 -20 0 -36 -8 -45
-21 -17 -26 -31 -27 -31 -3 -1 22 -20 46 -44 55 -17 7 -17 9 8 32 15 14 26 35
26 50 0 14 5 25 10 25 6 0 10 -4 10 -10z"/>
<path d="M2280 1975 c-17 -20 21 -143 53 -173 23 -22 55 -22 58 -1 1 5 2 15 3
22 4 28 -16 94 -40 130 -26 39 -53 47 -74 22z m50 -23 c0 -26 -11 -34 -27 -21
-10 9 -10 15 -2 25 16 19 29 17 29 -4z"/>
<path d="M1869 1854 c-33 -39 9 -176 61 -201 64 -31 80 79 26 172 -29 49 -62
59 -87 29z m56 -39 c0 -11 -7 -21 -16 -23 -18 -3 -33 23 -23 39 10 17 39 5 39
-16z"/>
<path d="M2345 1641 c5 -15 -7 -22 -72 -45 -123 -42 -205 -65 -218 -60 -8 3
-16 -11 -23 -38 -9 -35 -8 -44 4 -51 8 -4 22 -16 32 -26 66 -67 172 -78 239
-25 44 35 81 97 82 136 1 15 8 31 18 36 14 8 12 15 -18 51 -36 44 -54 53 -44
22z m30 -51 c3 -5 1 -29 -5 -52 -19 -74 -18 -73 -43 -50 -32 30 -74 43 -118
38 -44 -6 -130 -41 -141 -59 -10 -17 -21 -2 -14 20 4 13 45 31 148 65 156 51
164 53 173 38z m-67 -114 c26 -25 26 -25 6 -47 -30 -33 -66 -47 -114 -44 -41
2 -120 38 -120 53 1 19 49 47 110 65 37 10 94 -2 118 -27z"/>
<path d="M825 1688 c-21 -60 -9 -111 41 -177 35 -46 41 -61 24 -61 -5 0 -10 4
-10 9 0 10 -57 26 -80 22 -39 -6 -42 -10 -23 -42 24 -41 72 -69 124 -73 35 -3
48 -10 68 -35 24 -31 23 -54 -1 -33 -17 14 -114 10 -129 -5 -15 -15 1 -37 41
-58 40 -21 75 -25 116 -13 34 9 39 7 70 -24 39 -39 43 -50 12 -40 -42 14 -108
0 -133 -28 -16 -17 -15 -19 11 -36 36 -24 103 -22 148 4 l35 21 48 -40 c26
-21 54 -39 63 -39 10 1 5 9 -13 24 l-28 23 22 43 c24 46 31 111 15 148 -11 27
-18 27 -38 5 -29 -33 -42 -108 -27 -150 12 -32 5 -29 -42 18 l-41 41 21 47
c25 52 29 103 12 145 -11 28 -12 28 -31 11 -27 -24 -43 -80 -37 -126 3 -22 4
-39 3 -39 -2 0 -17 20 -35 45 -26 36 -30 49 -21 60 25 30 39 102 28 142 -5 21
-14 42 -18 47 -21 22 -65 -69 -56 -118 7 -38 -1 -32 -29 24 -18 36 -25 65 -25
109 0 67 -13 105 -48 139 -27 25 -31 27 -37 10z"/>
<path d="M3132 1672 c-32 -34 -42 -68 -42 -143 0 -44 -34 -139 -49 -139 -4 0
-7 20 -7 44 -1 39 -27 95 -45 96 -3 0 -12 -11 -19 -25 -19 -36 -16 -98 8 -146
l21 -42 -31 -44 c-17 -23 -32 -43 -33 -43 -2 0 0 20 2 44 4 33 0 56 -17 90
-25 53 -36 57 -51 19 -17 -41 -12 -92 12 -144 l21 -46 -42 -42 c-48 -47 -53
-49 -41 -18 13 37 4 104 -19 137 -26 37 -35 38 -48 3 -13 -40 -7 -97 16 -142
20 -39 20 -39 1 -57 -10 -9 -19 -21 -19 -26 0 -12 17 -10 32 5 7 6 27 24 45
38 l32 27 47 -23 c52 -25 102 -25 141 0 20 14 22 19 12 32 -26 31 -107 49
-141 31 -29 -14 -21 5 16 41 32 31 36 32 73 22 48 -13 101 0 140 34 21 18 25
26 16 35 -20 21 -96 24 -131 6 l-31 -16 21 37 c12 21 22 39 23 41 1 1 24 5 50
8 27 2 62 13 79 24 37 23 71 75 55 85 -20 13 -77 7 -103 -10 -35 -23 -33 -7 8
46 41 54 56 97 49 141 -7 50 -19 55 -51 20z"/>
<path d="M1975 889 c-20 -44 -40 -59 -79 -59 -56 0 -60 -10 -20 -51 36 -37 37
-38 30 -98 l-7 -61 38 21 c21 12 43 25 48 29 6 5 33 -3 63 -20 58 -31 60 -29
43 44 -9 36 -7 41 31 82 22 24 39 44 37 45 -7 1 -64 10 -84 13 -12 1 -30 21
-45 49 -14 26 -28 47 -31 47 -3 0 -14 -18 -24 -41z"/>
</g>
</svg>
