<?xml version="1.0" encoding="UTF-8" standalone="no"?>
<!-- Created with Inkscape (http://www.inkscape.org/) -->

<svg
   xmlns:dc="http://purl.org/dc/elements/1.1/"
   xmlns:cc="http://creativecommons.org/ns#"
   xmlns:rdf="http://www.w3.org/1999/02/22-rdf-syntax-ns#"
   xmlns:svg="http://www.w3.org/2000/svg"
   xmlns="http://www.w3.org/2000/svg"
   xmlns:sodipodi="http://sodipodi.sourceforge.net/DTD/sodipodi-0.dtd"
   xmlns:inkscape="http://www.inkscape.org/namespaces/inkscape"
   width="38.499588mm"
   height="36.823273mm"
   viewBox="0 0 38.499588 36.823273"
   version="1.1"
   id="svg1645"
   inkscape:version="0.92.2 (5c3e80d, 2017-08-06)"
   sodipodi:docname="test.svg">
  <defs
     id="defs1639" />
  <sodipodi:namedview
     id="base"
     pagecolor="#ffffff"
     bordercolor="#666666"
     borderopacity="1.0"
     inkscape:pageopacity="0.0"
     inkscape:pageshadow="2"
     inkscape:zoom="0.35"
     inkscape:cx="158.46945"
     inkscape:cy="-107.55555"
     inkscape:document-units="mm"
     inkscape:current-layer="layer1"
     showgrid="false"
     inkscape:window-width="1366"
     inkscape:window-height="705"
     inkscape:window-x="-8"
     inkscape:window-y="-8"
     inkscape:window-maximized="1"
     fit-margin-top="0"
     fit-margin-left="0"
     fit-margin-right="0"
     fit-margin-bottom="0" />
  <metadata
     id="metadata1642">
    <rdf:RDF>
      <cc:Work
         rdf:about="">
        <dc:format>image/svg+xml</dc:format>
        <dc:type
           rdf:resource="http://purl.org/dc/dcmitype/StillImage" />
        <dc:title></dc:title>
      </cc:Work>
    </rdf:RDF>
  </metadata>
  <g
     inkscape:label="Layer 1"
     inkscape:groupmode="layer"
     id="layer1"
     transform="translate(-63.904959,-83.552654)">
    <g
       id="g1699"
       transform="translate(417.28571,109.6131)">
      <g
         transform="matrix(0.34482715,0,0,-0.33336312,-332.78977,9.7271189)"
         id="g94">
        <path
           inkscape:connector-curvature="0"
           id="path96"
           style="fill:#fff500;fill-opacity:1;fill-rule:nonzero;stroke:none"
           d="m 0,0 h -0.002 c -7.821,0 -15.64,1.933 -22.612,5.588 -9.093,4.768 -16.315,12.11 -20.909,21.252 -2.532,-0.836 -5.38,-0.611 -7.755,0.634 -2.454,1.287 -4.22,3.465 -4.972,6.132 -0.752,2.667 -0.381,5.45 1.043,7.837 1.783,2.985 5.081,4.839 8.608,4.839 1.52,0 3.039,-0.355 4.391,-1.026 3.758,-1.866 5.918,-5.824 5.487,-9.962 1.24,-0.152 2.498,-0.228 3.746,-0.228 11.589,0 22.126,6.366 27.5,16.615 5.98,11.405 4.245,25.415 -4.291,35.02 -1.811,-1.551 -4.1,-2.4 -6.5,-2.4 -1.597,0 -3.193,0.394 -4.617,1.141 -2.453,1.286 -4.219,3.463 -4.971,6.13 -0.753,2.665 -0.383,5.447 1.04,7.834 1.781,2.988 5.08,4.845 8.61,4.845 1.526,0 2.99,-0.339 4.351,-1.007 2.518,-1.237 4.383,-3.458 5.172,-6.14 2.239,0.313 4.514,0.472 6.768,0.472 7.772,0 15.239,-1.808 22.193,-5.372 C 46.117,79.986 55.66,50.621 43.552,26.743 35.188,10.248 18.499,0 0,0" />
      </g>
      <g
         transform="matrix(0.34482715,0,0,-0.33336312,-322.60337,-7.4189771)"
         id="g98">
        <path
           inkscape:connector-curvature="0"
           id="path100"
           style="fill:#ffffff;fill-opacity:1;fill-rule:nonzero;stroke:none"
           d="m 0,0 c -0.384,-0.992 -0.977,-1.357 -1.632,-1.36 -0.658,-0.002 -1.239,0.367 -1.631,1.367 -0.302,0.775 -0.496,2.034 -0.5,3.118 -0.003,1.111 0.157,2.348 0.469,3.133 0.386,0.967 0.988,1.363 1.633,1.365 C -1.011,7.625 -0.391,7.143 0,6.164 0.312,5.384 0.466,4.238 0.469,3.138 0.473,2.046 0.303,0.779 0,0" />
      </g>
      <g
         transform="matrix(0.34482715,0,0,-0.33336312,-328.20357,-7.4211791)"
         id="g102">
        <path
           inkscape:connector-curvature="0"
           id="path104"
           style="fill:#ffffff;fill-opacity:1;fill-rule:nonzero;stroke:none"
           d="m 0,0 c -0.391,-1 -0.972,-1.369 -1.631,-1.366 -0.653,0.002 -1.246,0.367 -1.631,1.359 -0.303,0.78 -0.473,2.047 -0.47,3.138 0.005,1.1 0.158,2.246 0.47,3.027 0.391,0.978 1.011,1.46 1.661,1.459 C -0.956,7.614 -0.354,7.219 0.032,6.252 0.344,5.466 0.504,4.229 0.5,3.118 0.497,2.035 0.304,0.776 0,0" />
      </g>
      <g
         transform="matrix(0.34482715,0,0,-0.33336312,-328.27623,-7.5570581)"
         id="g106">
        <path
           inkscape:connector-curvature="0"
           id="path108"
           style="fill:#000000;fill-opacity:1;fill-rule:nonzero;stroke:none"
           d="m 0,0 c -0.34,-0.869 -0.845,-1.19 -1.418,-1.188 -0.568,0.002 -1.084,0.32 -1.419,1.182 -0.263,0.678 -0.411,1.78 -0.408,2.729 0.004,0.956 0.137,1.953 0.408,2.631 0.34,0.851 0.879,1.271 1.445,1.269 0.56,-0.002 1.084,-0.346 1.42,-1.187 C 0.299,4.753 0.438,3.678 0.435,2.711 0.432,1.769 0.264,0.674 0,0 m -1.495,8.219 c -3.146,-0.288 -3.86,-5.196 -3.86,-11.866 0,-6.667 0.429,-12.293 3.759,-12.331 3.177,-0.033 3.714,5.406 3.714,12.076 0,6.673 0.004,12.454 -3.613,12.121 M 16.236,-0.006 C 15.902,-0.868 15.387,-1.186 14.818,-1.188 14.246,-1.19 13.74,-0.869 13.399,0 c -0.263,0.674 -0.431,1.769 -0.434,2.711 -0.004,0.967 0.136,2.042 0.407,2.725 0.336,0.841 0.859,1.185 1.42,1.187 0.566,0.002 1.105,-0.418 1.444,-1.269 C 16.508,4.676 16.642,3.679 16.644,2.723 16.648,1.774 16.5,0.672 16.236,-0.006 m -1.341,8.225 c -3.617,0.333 -3.613,-5.448 -3.613,-12.121 0,-6.67 0.537,-12.109 3.715,-12.076 3.329,0.038 3.757,5.664 3.757,12.331 0,6.67 -0.714,11.578 -3.859,11.866 M 29.506,-24.62 c -12.055,-23.774 -41.18,-33.028 -64.711,-20.689 -9.306,4.879 -16.329,12.401 -20.636,21.16 -0.132,0.268 -0.444,0.403 -0.724,0.297 -2.301,-0.877 -4.951,-0.806 -7.304,0.428 -4.506,2.363 -6.149,8.04 -3.506,12.469 2.359,3.95 7.479,5.448 11.6,3.402 3.58,-1.777 5.413,-5.613 4.84,-9.334 -0.049,-0.321 0.178,-0.624 0.5,-0.668 13.028,-1.799 26.361,4.57 32.821,16.889 6.459,12.32 4.115,26.909 -4.774,36.602 -0.219,0.24 -0.597,0.254 -0.833,0.031 -2.689,-2.544 -6.792,-3.238 -10.253,-1.423 -4.504,2.362 -6.148,8.036 -3.508,12.464 2.35,3.941 7.448,5.447 11.567,3.425 2.472,-1.214 4.116,-3.41 4.721,-5.873 0.072,-0.291 0.36,-0.471 0.656,-0.427 9.515,1.417 19.542,-0.018 28.739,-4.732 C 31.962,27.479 41.327,-1.307 29.506,-24.62 m 6.96,37.013 C 32.338,25.619 23.308,36.446 11.037,42.88 c -8.269,4.336 -18.207,6.245 -28.568,5.154 -1.172,2.478 -3.126,4.61 -5.735,5.978 -6.384,3.347 -14.301,0.877 -17.649,-5.507 -3.347,-6.384 -0.877,-14.301 5.507,-17.649 4.039,-2.117 8.69,-1.904 12.411,0.153 5.85,-8.503 6.739,-20.12 1.695,-29.741 -5.045,-9.621 -15.107,-15.496 -25.427,-15.519 -0.424,4.23 -2.894,8.177 -6.933,10.295 -6.384,3.347 -14.301,0.877 -17.648,-5.507 -3.347,-6.384 -0.877,-14.301 5.507,-17.649 2.609,-1.368 5.474,-1.763 8.178,-1.318 4.996,-9.143 12.218,-16.232 20.486,-20.567 12.271,-6.434 26.313,-7.705 39.539,-3.578 13.226,4.127 24.054,13.158 30.488,25.429 6.434,12.271 7.705,26.312 3.578,39.539" />
      </g>
    </g>
  </g>
</svg>
