<?xml version="1.0" encoding="utf-8"?>
<!-- Generator: Adobe Illustrator 16.0.0, SVG Export Plug-In . SVG Version: 6.00 Build 0)  -->
<!DOCTYPE svg PUBLIC "-//W3C//DTD SVG 1.1//EN" "http://www.w3.org/Graphics/SVG/1.1/DTD/svg11.dtd">
<svg version="1.1" id="Layer_1" xmlns="http://www.w3.org/2000/svg" xmlns:xlink="http://www.w3.org/1999/xlink" x="0px" y="0px"
	 width="5728.329px" height="2864.156px" viewBox="0 0 5728.329 2864.156" enable-background="new 0 0 5728.329 2864.156"
	 xml:space="preserve">
<g>
	<defs>
		<rect id="SVGID_1_" width="5728.329" height="2864.156"/>
	</defs>
	<clipPath id="SVGID_2_">
		<use xlink:href="#SVGID_1_"  overflow="visible"/>
	</clipPath>
	<g clip-path="url(#SVGID_2_)">
		<rect fill="#73CEE4" width="5728.329" height="1432.087"/>
		<path fill="#00ACD0" d="M387.638,177.841l11.866,11.75l15.286,0.025l-12.729-12.703l12.729-12.696h-15.286l-11.866,11.832v-11.874
			l-13.502,0.042v25.374h13.502V177.841z M472.324,171.05h7.483c2.376,0,4.325,3.642,2.056,5.821
			c-2.27,2.088-6.093,2.591-6.093,2.591l10.064,10.129h15.27l-8.462-8.461c0,0,6.825-3.766,6.76-8.757
			c0.065-7.408-10.065-8.156-16.767-8.156c-3.881-0.042-7.664,0-10.312,0c-2.014-0.042-3.379,0-3.379,0H458.79v25.399l13.567-0.025
			L472.324,171.05z M436.761,169.339l6.867,20.277l13.46-0.025l-8.478-25.417h-23.715l-8.42,25.441l13.51-0.025L436.761,169.339z
			 M1432.078,1432.087h716.04V716.038h-716.04V1432.087z M514.672,189.591h13.567v-18.583l13.551,0.042v-6.875h-27.118
			l-13.567,0.042v6.833h13.567V189.591z M1756.45,650.38c8.979,8.897,20.894,13.805,33.656,13.805
			c12.736,0,24.66-4.843,33.63-13.805l258.656-258.697c8.996-8.946,13.872-20.885,13.872-33.624
			c0-12.736-4.876-24.709-13.872-33.572L1823.737,65.732c-8.971-8.922-20.894-13.863-33.63-13.863
			c-12.762,0-24.678,4.941-33.656,13.962l-258.672,258.656c-8.939,8.863-13.872,20.802-13.839,33.572
			c-0.033,12.738,4.9,24.736,13.839,33.624L1756.45,650.38z M1530.086,329.955l232.128-232.071
			c14.883-14.81,40.925-14.81,55.874,0.041l232.029,232.055c7.484,7.408,11.537,17.357,11.537,27.826
			c0,10.664-4.111,20.532-11.537,27.956l-232.029,232.023c-7.516,7.474-17.433,11.544-27.949,11.544
			c-10.566,0-20.533-4.046-27.958-11.544l-232.03-232.023c-7.491-7.39-11.528-17.324-11.528-27.956
			C1518.549,347.337,1522.66,337.43,1530.086,329.955z M2864.156,1432.087h716.038V716.038h-716.038V1432.087z M0,1432.087h716.031
			V716.038H0V1432.087z M4296.234,1432.087h716.039V716.038h-716.039V1432.087z M189.297,178.072l10.361,6.415l10.294-6.415
			l1.456,11.519h13.575l-3.306-25.374h-13.608l-8.412,6.833l-8.544-6.833l-13.51-0.042l-3.347,25.441l13.485-0.025L189.297,178.072z
			 M282.601,171.05h7.441c2.435-0.042,4.44,3.708,2.098,5.821c-2.295,2.088-6.168,2.591-6.168,2.591l10.263,10.129h15.261
			l-8.584-8.493c0,0,6.882-3.734,6.874-8.726c0.009-7.358-10.105-8.156-16.881-8.156h-10.303c-2.063,0-3.396,0-3.396,0
			l-10.155-0.042v25.417l13.551,0.025V171.05z M326.69,164.217h-13.583v25.374l13.583,0.025V164.217z M247.062,169.339l6.793,20.252
			h13.501l-8.404-25.417l-10.205,0.042h-13.592l-8.363,25.374h13.461L247.062,169.339z M348.86,191.262
			c11.158,0.041,20.121-6.323,20.121-14.349c0-7.935-8.963-14.391-20.121-14.391c-11.052,0-20.097,6.48-20.097,14.391
			C328.763,184.938,337.808,191.262,348.86,191.262z M348.86,172.752c3.281-0.034,5.92,1.841,5.92,4.161
			c0,2.367-2.64,4.217-5.954,4.217c-3.231,0-5.878-1.85-5.878-4.217C342.973,174.553,345.595,172.719,348.86,172.752z
			 M4654.285,644.443c157.879,0,286.385-128.474,286.385-286.384S4812.197,71.612,4654.285,71.612
			c-158.008,0.049-286.48,128.472-286.447,286.447C4367.805,515.979,4496.277,644.443,4654.285,644.443z M4654.285,91.642
			c146.826,0,266.402,119.503,266.402,266.417c0,146.835-119.509,266.395-266.402,266.395
			c-146.938,0-266.514-119.56-266.514-266.395C4387.771,211.145,4507.347,91.642,4654.285,91.642z M2148.118,0v716.038h716.039V0
			H2148.118z M5370.325,787.642c-158.173-0.048-286.351,128.187-286.431,286.4c0.08,158.174,128.258,286.44,286.431,286.44
			c158.142,0,286.416-128.266,286.383-286.44C5656.741,915.794,5528.565,787.594,5370.325,787.642z M5370.325,1301.92
			c-125.84,0.065-227.869-101.987-227.869-227.878c0-125.932,102.029-227.876,227.869-227.876
			c125.874,0,227.936,101.944,227.936,227.876C5598.261,1199.933,5496.199,1301.985,5370.325,1301.92z M4648.86,355.241
			c65.123-65.215,91.206-146.285,40.257-197.201c-50.883-50.923-131.893-24.791-197.147,40.317
			c-65.125,65.19-91.372,146.243-40.324,197.215C4502.627,446.472,4583.67,420.43,4648.86,355.241z M4464.898,382.367
			c-19.569-19.554-3.354-63.619,72.098-139.03c75.452-75.403,119.527-91.577,138.982-72.088
			c19.538,19.569,3.354,63.536-72.131,138.938C4528.38,385.582,4484.34,401.913,4464.898,382.367z M4700.499,402.176l-14.259-4.268
			c-17.185-5.344-53.975-11.603-88.016,22.522c-32.087,32.036-36.69,85.031,14.915,136.548
			c60.553,60.601,112.751,36.172,137.649,11.248c32.348-32.407,30.787-71.743,23.714-97.875l-5.229-21.256l12.303,3.067
			c35.686,8.643,60.52,8.971,84.627-15.237c25.49-25.457,31.082-70.815-14.504-116.434
			c-52.593-52.584-100.581-40.382-128.439-12.548c-19.159,19.151-25.096,37.019-25.096,62.846L4700.499,402.176z M4770.228,327.094
			c18.911-18.814,44.979-12.557,60.882,3.346c21.215,21.091,16.281,55.24-7.532,79.004c-17.894,17.876-38.449,23.213-50.323,21.814
			l-8.586-1.257l-4.965-24.792C4754.029,376.389,4750.789,346.623,4770.228,327.094z M4708.426,453.824
			c8.584,39.049,9.932,68.758-9.276,88c-18.83,18.871-48.612,22.094-67.821,2.976c-24.865-24.814-25.853-61.563,10.229-97.595
			c18.88-18.864,39.403-26.774,51.277-26.774h8.601L4708.426,453.824z M3580.194,0v716.038h716.04V0H3580.194z M5012.273,0v716.038
			h716.056V0H5012.273z M1771.572,608.723c9.842,9.819,27.25,9.819,37.068,0l232.087-232.111c4.868-4.909,7.607-11.546,7.607-18.552
			c0-6.981-2.739-13.592-7.607-18.517l-232.087-232.063c-4.942-4.909-11.537-7.63-18.534-7.68c-7.031,0-13.593,2.771-18.477,7.68
			l-232.153,232.063c-4.967,4.974-7.664,11.479-7.664,18.517c0.056,7.006,2.697,13.691,7.664,18.552L1771.572,608.723z
			 M1765.158,374.77c22.588-15.345,38.869-26.436,39.059-75.1l-40.095,0.065l60.504-104.79l60.511,104.691h-40.111
			c-0.304,70.33-31.633,91.684-56.918,108.887c-22.465,15.294-38.754,26.371-38.688,74.776h-40.777
			C1708.643,413.334,1739.931,391.963,1765.158,374.77z M3472.79,107.422h-118.195v28.788h118.195V107.422z M3089.673,579.828
			h-118.127v28.813h118.127V579.828z M3252.534,238.033l-0.033,70.938h-272.47v89.381l272.47-0.009v70.799l220.289-115.482
			L3252.534,238.033z M3089.673,107.422h-118.127v28.763h118.078L3089.673,107.422z M716.031,0v716.038h716.047V0H716.031z
			 M3281.216,107.422H3163.07v28.763h118.146V107.422z M3472.79,608.642v-28.813h-118.195v28.813H3472.79z M3163.07,608.642h118.146
			v-28.813H3163.07V608.642z M1075.062,1049.974h19.036V972.49h-19.036V1049.974z M2587.28,1101.317l-6.595,7.59
			c10.459,9.119,19.118,19.668,25.688,31.501l8.847-4.877C2608.05,1122.671,2598.618,1111.143,2587.28,1101.317z M2620.03,1242.46
			c5.888-13.549,9.333-28.005,10.14-42.897l-10.106-0.502c-0.723,13.7-3.799,26.905-9.325,39.478L2620.03,1242.46z
			 M2615.047,1012.947l-8.782-4.967c-6.676,11.8-15.303,22.432-25.753,31.452l6.57,7.614
			C2598.478,1037.195,2607.877,1025.766,2615.047,1012.947z M2506.186,1119.456c-40.546,0.033-73.536,32.981-73.536,73.561
			c0,40.472,32.989,73.462,73.536,73.462c40.489,0,73.52-32.99,73.52-73.543C2579.706,1152.438,2546.675,1119.489,2506.186,1119.456
			z M2506.186,1245.224c-28.862,0-52.33-23.362-52.354-52.288c0.024-28.822,23.492-52.272,52.354-52.272
			c28.821,0,52.305,23.434,52.305,52.272C2558.491,1221.813,2535.007,1245.224,2506.186,1245.224z M2620.138,905.862l-9.267,4.061
			c5.418,12.507,8.584,25.746,9.193,39.52l10.106-0.525C2629.363,933.958,2625.984,919.528,2620.138,905.862z M2529.481,1068.104
			h-47.24v12.022h47.24V1068.104z M2506.186,881.818c-40.546,0-73.536,32.923-73.536,73.389c0,40.571,32.989,73.536,73.536,73.536
			c40.489,0,73.52-32.999,73.52-73.57C2579.706,914.651,2546.675,881.818,2506.186,881.818z M2506.186,1007.56
			c-28.862,0-52.33-23.526-52.33-52.353c0-28.765,23.467-52.216,52.33-52.216c28.821,0,52.305,23.451,52.305,52.216
			C2558.491,984.034,2535.007,1007.486,2506.186,1007.56z M3972.257,1120.04c-3.092-2.311-7.417-1.684-9.669,1.381
			c-2.27,3.026-1.646,7.369,1.413,9.637c0.263,0.231,30.243,23.007,19.274,43.654c-13.699,25.664-62.163,9.103-85.418,1.143
			l-1.71-0.575c-6.858-2.335-13.716-4.917-20.394-7.441c-34.106-12.902-66.34-25.111-91.305-2.558
			c-9.834,8.939-15.097,20.13-15.557,33.197c-1.137,32.759,27.891,63.857,31.18,67.279c1.348,1.39,3.142,2.095,4.949,2.095
			c1.745,0,3.438-0.631,4.77-1.922c2.746-2.632,2.846-6.99,0.214-9.754c-10.524-10.902-28.089-35.218-27.332-57.222
			c0.361-9.357,3.947-17.014,11.052-23.458c18.683-16.875,45.768-6.653,77.163,5.237c6.809,2.573,13.78,5.214,20.819,7.614
			l1.676,0.559c26.84,9.202,82.804,28.369,102.062-7.72C4011.924,1150.266,3973.836,1121.266,3972.257,1120.04z M4075.649,892.68
			c0,0-1.381-15.162-13.715-21.494c-0.017-0.034-0.083-0.034-0.115-0.049c-0.033-0.024-0.083-0.065-0.099-0.081
			c-12.301-6.48-25.49,1.094-25.49,1.094l-286.86,121.383c0,0-11.627,3.849-8.665,12.492c2.941,8.683,17.332,2.935,17.332,2.935
			c17.021-5.978,57.264-20.039,57.264-20.039s10.559-4.639,13.552,1.48c2.991,6.094-4.967,9.407-4.967,9.407
			s-18.963,8.321-26.608,12.368c-1.235,0.649-6.876,2.91-6.168,6.512c0.707,3.586,6.035,3.092,6.035,3.092
			c19.637-0.124,83.642,8.822,149.819,39.412l-14.209,36.484c-3.042,5.632-2.205,10.747,0.099,13.823
			c0.724,1.027,1.595,1.808,2.632,2.335c0.952,0.501,2.12,0.788,3.387,0.804c3.849,0.107,8.553-2.154,11.413-7.828l21.709-32.57
			c63.004,36.666,107.027,83.962,118.26,100.129c0,0,2.582,4.605,5.938,3.133c3.338-1.504,1.973-7.385,1.808-8.766
			c-1.052-8.584-5.098-28.879-5.098-28.879s-1.841-8.412,4.851-9.489c6.711-1.051,8.981,10.264,8.981,10.264
			s11.56,41.007,16.396,58.38c0,0,3.534,15.073,12.332,12.532c8.767-2.581,5.312-14.274,5.312-14.274L4075.649,892.68z
			 M4038.532,1003.352c-10.46,20.095-35.259,27.891-55.355,17.44c-20.112-10.484-27.925-35.244-17.499-55.357
			c10.509-20.095,35.276-27.884,55.405-17.425C4041.114,958.454,4048.958,983.237,4038.532,1003.352z M5398.957,1005.02
			l-68.167-9.958l-42.051,37.226l25.145,42.06l-24.733,21.831l7.632,37.431l50.354,21.304l54.435-15.523l11.185-33.976
			l-18.436-24.612l31.459-25.309L5398.957,1005.02z M5357.91,1122.721l-17.121-1.226l-8.518-16.453l20.919-14.571l16.05,17.802
			L5357.91,1122.721z M5354.407,1068.926l-17.663-22.81l11.1-14.068l22.104-0.97l5.937,20.4L5354.407,1068.926z M3908.284,1090.356
			c3.552,1.291,7.531-0.462,8.864-4.046c1.381-3.57-0.412-7.524-3.996-8.881c-14.735-5.526-35.456-6.15-45.505,10.188
			c-5.181,8.479-6.563,17.696-4.062,27.408c6.429,24.831,35.109,42.585,43.793,47.453c1.004,0.607,2.188,0.887,3.371,0.887
			c2.402,0,4.704-1.257,5.986-3.519c1.877-3.306,0.676-7.509-2.63-9.375c-14.604-8.214-33.123-23.328-37.167-38.901
			c-1.562-6.036-0.774-11.512,2.466-16.71C3887.02,1082.495,3907.429,1090.027,3908.284,1090.356z M4193.121,819.242
			c-8.832-8.83-20.475-13.682-32.924-13.682h-444.08c-12.432,0-24.092,4.828-32.874,13.601
			c-8.782,8.798-13.601,20.467-13.551,32.907v444.013c-0.05,12.433,4.769,24.11,13.583,32.908
			c8.75,8.757,20.41,13.601,32.842,13.601h444.08c25.671,0,46.54-20.861,46.54-46.492l-0.099-444.029
			C4206.688,839.693,4201.869,828.033,4193.121,819.242z M4160.197,1327.821h-444.08c-8.47,0-16.445-3.29-22.365-9.283
			c-5.986-5.978-9.309-13.931-9.227-22.417V852.068c-0.082-8.495,3.207-16.462,9.227-22.457c5.92-5.993,13.896-9.3,22.365-9.3
			h444.08c8.453,0,16.396,3.354,22.431,9.375c6.003,5.995,9.259,13.946,9.211,22.358l0.048,444.054
			C4191.887,1313.587,4177.694,1327.821,4160.197,1327.821z M2506.186,769.75c-102.332,0-185.465,83.174-185.465,185.458
			c0,43.629,15.295,85.509,43.335,118.901c-28.04,33.433-43.335,75.246-43.335,118.828c0,102.299,83.134,185.447,185.465,185.447
			c102.25,0.024,185.382-83.148,185.382-185.447c0-43.582-15.294-85.395-43.259-118.828c27.965-33.393,43.259-75.272,43.259-118.935
			C2691.568,852.924,2608.437,769.75,2506.186,769.75z M2626.353,1081.411c28.418,30.489,44,70.146,44,111.525
			c0,90.557-73.658,164.265-164.167,164.265c-90.624,0.033-164.25-73.667-164.25-164.265c0-41.361,15.583-81.036,43.992-111.525
			l6.677-7.302l-6.677-7.271c-28.335-30.514-43.992-70.148-43.992-111.631c0.024-90.517,73.626-164.209,164.25-164.209
			c90.509-0.074,164.167,73.692,164.167,164.175c0,41.516-15.615,81.151-44,111.665l-6.668,7.271L2626.353,1081.411z
			 M5440.712,1041.118l3.651,79.474l50.521,32.586l53.482-16.084l22.3-73.725l-20.888-50.882l-60.52-16.307L5440.712,1041.118z
			 M5521.51,1048.42l1.332,46.804l-23.024,18.427l-17.794-24.397l12.285-44.51L5521.51,1048.42z M3974.92,1212.957
			c-3.058-2.27-7.3-1.604-9.588,1.415c-2.268,3.034-1.626,7.352,1.365,9.637c1.877,1.415,10.789,9.021,4.77,19.743
			c-8.978,15.911-37.232,2.755-37.528,2.607c-3.389-1.662-7.498-0.148-9.128,3.265c-1.66,3.42-0.213,7.54,3.225,9.184
			c7.12,3.404,17.449,6.635,27.547,6.635c10.887,0,21.575-3.732,27.891-14.932
			C3993.274,1233.087,3982.207,1218.328,3974.92,1212.957z M2433.382,1293.558c12.062,8.74,25.432,15.17,39.806,19.06l2.665-9.628
			c-13.141-3.667-25.393-9.572-36.559-17.58L2433.382,1293.558z M2536.265,1303.022l2.664,9.727
			c14.25-3.882,27.686-10.387,39.807-19.061l-5.872-8.174C2561.698,1293.558,2549.446,1299.47,2536.265,1303.022z
			 M5168.555,1032.204l34.717,37.62l21.707-22.086l-14.981,98.459l48.302,4.588l10.229-145.239l-42.051-8.075L5168.555,1032.204z
			 M1075.062,924.347h19.036v-77.484h-19.036V924.347z M1075.062,1175.626h19.036v-77.459h-19.036V1175.626z M92.935,504.008
			c41.318,74.037,111.229,84.035,167.521,91.979c44.091,6.299,79.062,11.241,89.72,42.841c1.192,3.404,4.291,5.616,7.868,5.616
			c3.562,0,6.637-2.212,7.722-5.575c10.722-31.641,45.619-36.583,89.89-42.857c56.129-7.936,126.155-17.966,167.424-92.003
			c46.311-82.698,6.709-157.286-19.455-206.697c-10.731-20.22-20.048-37.791-20.048-48.991c0-37.998,42.126-59.451,42.529-59.68
			c2.467-1.235,4.127-3.537,4.506-6.159c0.386-2.762-0.584-5.436-2.492-7.244L516.95,73.815c-3.265-2.944-8.132-2.944-11.224,0.099
			c-13.304,12.819-41.114,21.034-71.062,21.067c-30.795-0.033-72.311-22.152-72.837-22.358c-2.426-1.316-5.304-1.316-7.688,0
			c-0.477,0.222-41.97,22.392-72.821,22.392c-29.881-0.034-57.757-8.281-70.979-21.018c-3.157-3.109-8.075-3.183-11.273-0.214
			L87.918,175.236c-1.957,1.808-2.828,4.482-2.573,7.244c0.468,2.589,2.096,4.958,4.539,6.175
			c0.369,0.213,42.454,21.617,42.545,59.665c-0.091,11.2-9.276,28.796-20.072,49.081C86.208,346.738,46.681,421.31,92.935,504.008z
			 M107.241,179.833l97.622-89.045c17.465,12.852,45.826,20.639,76.455,20.581c29.495,0,64.936-16.354,76.727-22.267
			c11.701,5.846,47.208,22.267,76.62,22.267c30.712,0,59.057-7.729,76.455-20.647l97.646,89.111
			c-12.393,8.403-32.333,25.54-39.1,50.981H146.382C139.614,205.372,119.667,188.235,107.241,179.833z M148.898,248.319
			c0-0.377-0.091-0.708-0.099-1.085h418.449c0,0.377-0.099,0.708-0.099,1.085c0,15.318,9.679,33.558,21.905,56.688
			c26.059,49.023,61.564,116.129,19.711,191.056c-37.438,66.852-100.113,75.789-155.42,83.642
			c-39.271,5.6-76.644,10.928-95.302,38.121c-18.78-27.193-56.087-32.504-95.343-38.047c-55.307-7.926-117.997-16.798-155.46-83.715
			c-41.862-74.927-6.348-142.032,19.637-190.95C139.212,281.893,148.898,263.671,148.898,248.319z M816.078,1041.39l73.602-40.521
			v300.394h54.36v-300.394l73.603,40.521L916.913,846.863L816.078,1041.39z M1075.062,1301.262h19.036v-77.475h-19.036V1301.262z
			 M1151.517,1041.39l73.603-40.521v300.394h54.369v-300.394l73.618,40.521l-100.827-194.526L1151.517,1041.39z M2397.284,1135.252
			l8.798,4.999c6.578-11.881,15.237-22.439,25.737-31.526l-6.644-7.612C2413.845,1110.93,2404.445,1122.416,2397.284,1135.252z
			 M256.066,469.561c0,54.928,41.937,94.307,101.978,94.307c59.953-0.032,101.955-39.379,101.955-94.307
			c0-26.485-8.026-51.902-34.438-65.19c8.757-7.152,27.209-21.938,27.209-53.415c0-37.881-29.824-77.96-94.727-77.96
			c-64.959,0-94.792,40.079-94.792,77.576v0.418c-0.09,31.444,18.478,46.229,27.21,53.382
			C264.042,417.659,256.066,443.059,256.066,469.561z M332.332,356.654c0-15.139,12.096-25.745,25.712-25.745
			c13.519-0.024,25.672,10.559,25.672,25.745c0,15.146-12.121,25.778-25.672,25.778c-13.657-0.032-25.712-10.632-25.712-25.333
			V356.654z M327.398,469.216c0-15.245,10.953-32.208,30.646-32.208c19.538,0,30.589,16.939,30.589,32.119
			c0,14.899-11.388,31.854-30.589,31.854c-19.364-0.049-30.646-17.039-30.646-31.445V469.216z M2382.22,1199.307
			c0.698,14.892,4.062,29.422,9.965,43.023l9.3-4.037c-5.459-12.532-8.568-25.771-9.267-39.527L2382.22,1199.307z M2392.317,905.647
			c-5.903,13.634-9.325,28.122-10.024,42.973l9.925,0.582c0.756-13.731,3.947-27.018,9.324-39.459L2392.317,905.647z
			 M2578.966,854.626c-12.079-8.692-25.564-15.155-39.822-19.111l-2.706,9.754c13.14,3.584,25.523,9.489,36.566,17.546
			L2578.966,854.626z M2476.025,845.202l-2.59-9.727c-14.324,3.963-27.751,10.32-39.839,18.979l5.903,8.256
			C2450.601,854.626,2462.885,848.796,2476.025,845.202z M2425.019,1046.833l6.587-7.54c-10.459-9.054-19.043-19.662-25.614-31.428
			l-8.774,4.884C2404.315,1025.528,2413.672,1037.04,2425.019,1046.833z"/>
		<rect y="1432.078" fill="#73CEE4" width="5728.329" height="1432.078"/>
		<path fill="#00ACD0" d="M2864.156,2864.156h716.038v-716.04h-716.038V2864.156z M4296.234,2864.156h716.039v-716.04h-716.039
			V2864.156z M1432.078,2864.156h716.04v-716.04h-716.04V2864.156z M2957.105,1936.102c41.312,74.02,111.223,84.037,167.516,91.963
			c44.09,6.314,79.07,11.248,89.727,42.842c1.184,3.403,4.275,5.623,7.861,5.623c3.553,0,6.643-2.22,7.729-5.574
			c10.706-31.643,45.619-36.576,89.891-42.857c56.113-7.928,126.139-17.977,167.417-91.996
			c46.311-82.723,6.709-157.285-19.455-206.704c-10.74-20.229-20.048-37.793-20.048-48.991c0-37.989,42.134-59.451,42.527-59.682
			c2.468-1.233,4.129-3.537,4.507-6.166c0.395-2.765-0.575-5.428-2.499-7.237l-111.173-101.419
			c-3.256-2.943-8.124-2.943-11.217,0.099c-13.304,12.811-41.114,21.018-71.06,21.067c-30.804-0.05-72.312-22.17-72.838-22.367
			c-2.435-1.316-5.295-1.316-7.697,0c-0.459,0.23-41.969,22.398-72.804,22.398c-29.882-0.031-57.773-8.288-70.996-21.018
			c-3.157-3.107-8.058-3.188-11.264-0.229l-111.155,101.469c-1.942,1.81-2.829,4.473-2.566,7.237
			c0.477,2.598,2.104,4.965,4.538,6.182c0.362,0.215,42.462,21.61,42.545,59.666c-0.083,11.198-9.275,28.778-20.079,49.072
			C2950.364,1778.816,2910.845,1853.379,2957.105,1936.102z M2971.414,1611.893l97.621-89.035
			c17.465,12.86,45.816,20.656,76.455,20.589c29.488,0,64.926-16.347,76.719-22.266c11.708,5.838,47.214,22.266,76.62,22.266
			c30.704,0,59.056-7.729,76.454-20.638l97.654,89.084c-12.399,8.421-32.332,25.558-39.106,50.999h-423.293
			C3003.779,1637.45,2983.831,1620.313,2971.414,1611.893z M3013.054,1680.406c0-0.379-0.099-0.707-0.099-1.087h418.457
			c-0.016,0.38-0.099,0.708-0.099,1.087c0,15.327,9.688,33.548,21.905,56.687c26.067,49.025,61.557,116.122,19.719,191.049
			c-37.447,66.868-100.12,75.78-155.41,83.642c-39.289,5.591-76.67,10.92-95.318,38.121c-18.781-27.201-56.08-32.496-95.352-38.055
			c-55.29-7.928-117.98-16.791-155.443-83.708c-41.869-74.927-6.349-142.023,19.636-190.95
			C3003.385,1713.987,3013.054,1695.75,3013.054,1680.406z M0,2864.156h716.031v-716.04H0V2864.156z M417.068,1539.499H298.923
			v28.765h118.146V1539.499z M1836.334,1834.27l-14.266-4.275c-17.178-5.361-53.958-11.611-88,22.531
			c-32.094,32.019-36.682,85.022,14.924,136.529c60.535,60.618,112.718,36.165,137.633,11.25
			c32.356-32.398,30.785-71.736,23.714-97.885l-5.239-21.247l12.31,3.059c35.687,8.649,60.511,8.979,84.629-15.229
			c25.506-25.457,31.082-70.813-14.506-116.435c-52.609-52.577-100.589-40.373-128.422-12.531
			c-19.184,19.143-25.129,37.003-25.129,62.823L1836.334,1834.27z M1906.063,1759.18c18.896-18.814,44.987-12.563,60.898,3.354
			c21.198,21.083,16.282,55.225-7.549,79.005c-17.9,17.859-38.449,23.188-50.323,21.808l-8.592-1.251l-4.966-24.799
			C1889.873,1808.483,1886.625,1778.717,1906.063,1759.18z M1844.261,1885.909c8.577,39.042,9.925,68.759-9.275,87.999
			c-18.822,18.864-48.614,22.087-67.813,2.978c-24.866-24.832-25.87-61.572,10.237-97.604
			c18.871-18.864,39.386-26.757,51.252-26.757h8.617L1844.261,1885.909z M388.37,1670.111l-0.024,70.945H115.867v89.383
			l272.479-0.018v70.799l220.288-115.482L388.37,1670.111z M5370.342,2551.543c-40.554,0.016-73.528,32.973-73.528,73.562
			c0,40.454,32.975,73.46,73.528,73.46c40.472,0,73.512-33.006,73.512-73.527S5410.813,2551.559,5370.342,2551.543z
			 M5370.342,2677.303c-28.861,0-52.313-23.354-52.347-52.266c0.033-28.846,23.485-52.297,52.347-52.297
			c28.813,0,52.297,23.436,52.297,52.297C5422.639,2653.883,5399.155,2677.303,5370.342,2677.303z M298.923,2040.727h118.146
			v-28.812H298.923V2040.727z M1790.122,2076.529c157.877,0,286.391-128.473,286.391-286.383
			c0-157.926-128.481-286.465-286.391-286.465c-158.009,0.065-286.498,128.473-286.44,286.465
			C1503.625,1948.057,1632.113,2076.529,1790.122,2076.529z M1790.122,1523.729c146.842,0,266.41,119.511,266.41,266.418
			c0,146.842-119.518,266.402-266.41,266.402c-146.932,0-266.516-119.561-266.516-266.402
			C1523.606,1643.239,1643.19,1523.729,1790.122,1523.729z M1784.695,1787.317c65.141-65.206,91.215-146.283,40.276-197.197
			c-50.908-50.915-131.902-24.801-197.149,40.324c-65.14,65.19-91.379,146.233-40.349,197.215
			C1638.47,1878.558,1719.505,1852.525,1784.695,1787.317z M1600.719,1814.453c-19.553-19.553-3.354-63.629,72.122-139.031
			c75.443-75.402,119.501-91.584,138.965-72.08c19.537,19.569,3.354,63.513-72.122,138.932
			C1664.232,1817.66,1620.174,1833.991,1600.719,1814.453z M5370.342,2201.844c-102.324,0-185.456,83.165-185.456,185.441
			c0,43.629,15.294,85.516,43.317,118.884c-28.023,33.45-43.317,75.272-43.317,118.868c0,102.292,83.132,185.424,185.456,185.424
			c102.242,0.018,185.392-83.132,185.392-185.424c0-43.596-15.296-85.418-43.286-118.868c27.99-33.368,43.286-75.255,43.286-118.917
			C5555.733,2285.009,5472.584,2201.844,5370.342,2201.844z M5490.51,2513.471c28.418,30.523,44.009,70.157,44.009,111.566
			c0,90.533-73.677,164.258-164.177,164.258c-90.632,0.033-164.24-73.676-164.24-164.258c0-41.377,15.557-81.043,43.99-111.566
			l6.678-7.302l-6.678-7.235c-28.352-30.524-43.99-70.157-43.99-111.648c0.031-90.518,73.608-164.209,164.24-164.209
			c90.5-0.066,164.177,73.691,164.177,164.176c0,41.524-15.624,81.157-44.009,111.682l-6.676,7.235L5490.51,2513.471z
			 M608.633,1539.499H490.448v28.78h118.186V1539.499z M3120.229,1901.647c0,54.911,41.937,94.298,101.979,94.298
			c59.961-0.033,101.962-39.387,101.962-94.298c0-26.494-8.024-51.886-34.437-65.19c8.749-7.154,27.2-21.922,27.2-53.431
			c0-37.858-29.831-77.952-94.726-77.952c-64.961,0-94.792,40.094-94.792,77.59v0.411c-0.099,31.46,18.484,46.228,27.199,53.382
			C3128.205,1849.762,3120.229,1875.138,3120.229,1901.647z M3196.487,1788.75c0-15.148,12.105-25.756,25.722-25.756
			c13.518-0.031,25.671,10.559,25.671,25.756c0,15.13-12.121,25.785-25.671,25.785c-13.649-0.065-25.722-10.655-25.722-25.358
			V1788.75z M3191.57,1901.302c0-15.245,10.953-32.2,30.639-32.2c19.536,0,30.588,16.939,30.588,32.102
			c0,14.9-11.38,31.855-30.588,31.855c-19.373-0.049-30.639-17.038-30.639-31.443V1901.302z M3336.506,1603.145h7.466
			c2.385,0,4.325,3.617,2.055,5.822c-2.27,2.072-6.101,2.58-6.101,2.58l10.082,10.115h15.26l-8.47-8.453c0,0,6.842-3.75,6.777-8.749
			c0.064-7.4-10.064-8.173-16.774-8.173c-3.882-0.018-7.665,0-10.295,0c-2.041-0.018-3.389,0-3.389,0h-10.163v25.407l13.567-0.032
			L3336.506,1603.145z M3300.917,1601.418l6.874,20.276l13.452-0.032l-8.47-25.393h-23.714l-8.419,25.425l13.518-0.032
			L3300.917,1601.418z M3378.835,1621.662h13.569v-18.567l13.551,0.05v-6.875h-27.12l-13.567,0.018v6.857h13.567V1621.662z
			 M3251.812,1609.921l11.856,11.741l15.277,0.032l-12.712-12.696l12.712-12.711h-15.277l-11.856,11.84v-11.857l-13.52,0.018v25.375
			h13.52V1609.921z M4620.621,2082.466c8.981,8.881,20.903,13.798,33.648,13.798c12.729,0,24.669-4.834,33.633-13.798
			l258.654-258.704c8.98-8.931,13.88-20.87,13.88-33.615s-4.899-24.718-13.88-33.599l-258.654-258.738
			c-8.964-8.928-20.903-13.863-33.633-13.863c-12.745,0-24.667,4.936-33.648,13.962l-258.67,258.64
			c-8.931,8.881-13.88,20.82-13.848,33.599c-0.032,12.745,4.917,24.718,13.848,33.615L4620.621,2082.466z M4394.266,1762.042
			l232.096-232.079c14.9-14.803,40.95-14.803,55.916,0.031l231.997,232.064c7.499,7.416,11.546,17.366,11.546,27.825
			c0,10.657-4.129,20.54-11.546,27.958l-231.997,232.029c-7.531,7.466-17.449,11.545-27.992,11.545
			c-10.556,0-20.523-4.046-27.939-11.545l-232.031-232.029c-7.498-7.385-11.511-17.316-11.511-27.958
			C4382.721,1779.425,4386.816,1769.507,4394.266,1762.042z M4635.735,2040.81c9.851,9.817,27.235,9.817,37.068,0l232.098-232.129
			c4.851-4.899,7.597-11.528,7.597-18.534c0-6.99-2.746-13.601-7.597-18.518l-232.098-232.062
			c-4.934-4.918-11.528-7.631-18.534-7.697c-7.021,0-13.601,2.779-18.469,7.697l-232.161,232.062
			c-4.95,4.982-7.68,11.463-7.68,18.518c0.083,7.006,2.729,13.666,7.68,18.534L4635.735,2040.81z M4629.322,1806.855
			c22.58-15.344,38.876-26.445,39.058-75.106l-40.077,0.065l60.486-104.792l60.504,104.692h-40.11
			c-0.297,70.321-31.626,91.701-56.902,108.887c-22.481,15.295-38.762,26.362-38.681,74.779h-40.784
			C4572.815,1845.421,4604.095,1824.04,4629.322,1806.855z M5012.273,1432.078v716.038h716.056v-716.038H5012.273z
			 M3213.032,1623.34c11.149,0.05,20.112-6.332,20.112-14.342c0-7.926-8.963-14.389-20.112-14.389
			c-11.052,0-20.097,6.463-20.097,14.389C3192.936,1617.008,3201.98,1623.34,3213.032,1623.34z M3213.032,1604.822
			c3.271-0.034,5.921,1.841,5.921,4.176c0,2.369-2.649,4.211-5.954,4.211c-3.239,0-5.888-1.842-5.888-4.211
			C3207.145,1606.631,3209.76,1604.788,3213.032,1604.822z M3053.461,1610.15l10.36,6.413l10.312-6.413l1.447,11.512h13.567
			l-3.305-25.375h-13.617l-8.404,6.857l-8.535-6.857l-13.518-0.018l-3.354,25.425l13.485-0.032L3053.461,1610.15z
			 M3580.194,1432.078v716.038h716.04v-716.038H3580.194z M2148.118,1432.078v716.038h716.039v-716.038H2148.118z
			 M3111.234,1601.418l6.776,20.244h13.518l-8.42-25.393l-10.197,0.018h-13.583l-8.371,25.375h13.469L3111.234,1601.418z
			 M716.031,1432.078v716.038h716.047v-716.038H716.031z M3190.847,1596.287h-13.567v25.375l13.567,0.032V1596.287z
			 M3146.757,1603.145h7.45c2.433-0.05,4.439,3.7,2.089,5.822c-2.286,2.072-6.152,2.58-6.152,2.58l10.262,10.115h15.263
			l-8.585-8.485c0,0,6.876-3.718,6.876-8.717c0-7.367-10.116-8.173-16.875-8.173h-10.327c-2.057,0-3.388,0-3.388,0l-10.163-0.018
			v25.393l13.551,0.032V1603.145z M608.633,2040.727v-28.812H490.448v28.812H608.633z M3928.709,2356.448h19.012v-77.491h-19.012
			V2356.448z M5340.164,2277.279l-2.582-9.718c-14.308,3.963-27.742,10.312-39.848,18.961l5.921,8.272
			C5314.772,2286.704,5327.042,2280.882,5340.164,2277.279z M225.518,1539.499H107.39v28.765h118.087L225.518,1539.499z
			 M4005.148,2473.475l73.611-40.521v300.395h54.367v-300.395l73.61,40.521l-100.812-194.518L4005.148,2473.475z M3928.709,2733.348
			h19.012v-77.491h-19.012V2733.348z M3928.709,2607.704h19.012v-77.459h-19.012V2607.704z M3928.709,2482.06h19.012v-77.491
			h-19.012V2482.06z M5246.392,2631.385c0.691,14.9,4.046,29.422,9.966,43.023l9.291-4.047c-5.475-12.531-8.584-25.753-9.273-39.502
			L5246.392,2631.385z M5400.422,2735.092l2.663,9.736c14.242-3.883,27.661-10.363,39.798-19.046l-5.854-8.189
			C5425.847,2725.651,5413.578,2731.539,5400.422,2735.092z M5297.537,2725.651c12.071,8.733,25.442,15.164,39.798,19.044
			l2.665-9.621c-13.124-3.667-25.392-9.57-36.559-17.58L5297.537,2725.651z M5393.629,2500.183h-47.249v12.038h47.249V2500.183z
			 M5261.423,2567.331l8.815,5.016c6.577-11.907,15.244-22.466,25.72-31.544l-6.626-7.614
			C5278.017,2543.008,5268.61,2554.502,5261.423,2567.331z M5256.489,2337.734c-5.921,13.616-9.341,28.122-10.032,42.972
			l9.918,0.575c0.772-13.716,3.947-27.002,9.323-39.469L5256.489,2337.734z M5289.184,2478.918l6.579-7.547
			c-10.444-9.045-19.046-19.67-25.623-31.428l-8.749,4.884C5268.462,2457.606,5277.835,2469.135,5289.184,2478.918z
			 M3669.726,2473.475l73.608-40.521v300.395h54.338v-300.395l73.609,40.521l-100.712-194.518L3669.726,2473.475z
			 M5443.114,2286.704c-12.087-8.684-25.558-15.147-39.816-19.094l-2.712,9.735c13.156,3.585,25.523,9.488,36.558,17.548
			L5443.114,2286.704z M5484.294,2337.932l-9.26,4.078c5.411,12.498,8.568,25.754,9.177,39.518l10.113-0.541
			C5493.503,2366.036,5490.132,2351.613,5484.294,2337.932z M5484.195,2674.538c5.854-13.551,9.308-27.989,10.129-42.89
			l-10.113-0.492c-0.707,13.682-3.799,26.904-9.325,39.469L5484.195,2674.538z M1033.619,2522.434
			c3.552,1.299,7.532-0.477,8.855-4.045c1.382-3.568-0.402-7.516-4.004-8.881c-14.735-5.525-35.449-6.135-45.497,10.179
			c-5.188,8.487-6.562,17.696-4.062,27.415c6.439,24.851,35.112,42.611,43.795,47.463c1.011,0.592,2.195,0.889,3.371,0.889
			c2.393,0,4.712-1.267,5.995-3.537c1.858-3.289,0.666-7.499-2.631-9.374c-14.621-8.206-33.13-23.319-37.184-38.894
			c-1.554-6.036-0.764-11.511,2.484-16.691C1012.347,2514.556,1032.764,2522.121,1033.619,2522.434z M1200.969,2324.775
			c0,0-1.373-15.179-13.699-21.512c-0.025-0.033-0.082-0.033-0.124-0.064c-0.024,0-0.074-0.033-0.099-0.067
			c-12.285-6.479-25.499,1.118-25.499,1.118l-286.851,121.369c0,0-11.619,3.848-8.667,12.499c2.944,8.667,17.342,2.928,17.342,2.928
			c17.014-5.986,57.264-20.048,57.264-20.048s10.549-4.639,13.542,1.48c2.993,6.101-4.975,9.422-4.975,9.422
			s-18.953,8.321-26.617,12.368c-1.217,0.624-6.857,2.894-6.15,6.512c0.708,3.569,6.027,3.076,6.027,3.076
			c19.652-0.114,83.659,8.831,149.819,39.419l-14.218,36.478c-3.026,5.623-2.195,10.738,0.099,13.813
			c0.741,1.052,1.62,1.826,2.64,2.352c0.971,0.494,2.139,0.79,3.396,0.807c3.849,0.099,8.543-2.172,11.405-7.828l21.709-32.563
			c63.019,36.642,107.052,83.939,118.26,100.12c0,0,2.605,4.605,5.944,3.126c3.347-1.497,1.99-7.401,1.809-8.75
			c-1.069-8.585-5.106-28.877-5.106-28.877s-1.826-8.421,4.851-9.505c6.709-1.054,8.979,10.262,8.979,10.262
			s11.57,41.014,16.42,58.38c0,0,3.512,15.08,12.318,12.532c8.757-2.583,5.304-14.275,5.304-14.275L1200.969,2324.775z
			 M1163.843,2435.421c-10.459,20.112-35.235,27.907-55.356,17.447c-20.104-10.475-27.908-35.242-17.474-55.354
			c10.492-20.113,35.276-27.876,55.406-17.416C1166.45,2390.525,1174.278,2415.324,1163.843,2435.421z M225.518,2011.915H107.39
			v28.812h118.128V2011.915z M1100.248,2645.035c-3.05-2.27-7.302-1.612-9.596,1.414c-2.269,3.027-1.628,7.352,1.357,9.638
			c1.891,1.415,10.821,9.029,4.802,19.751c-8.979,15.902-37.266,2.746-37.545,2.599c-3.396-1.661-7.508-0.148-9.128,3.271
			c-1.669,3.422-0.206,7.533,3.231,9.177c7.129,3.422,17.44,6.645,27.538,6.645c10.895,0,21.568-3.733,27.884-14.948
			C1118.602,2665.166,1107.526,2650.413,1100.248,2645.035z M1097.601,2552.118c-3.108-2.302-7.434-1.678-9.67,1.381
			c-2.269,3.026-1.669,7.367,1.406,9.638c0.272,0.23,30.227,23.024,19.266,43.662c-13.707,25.655-62.164,9.095-85.41,1.135
			l-1.719-0.559c-6.866-2.352-13.708-4.934-20.384-7.467c-34.116-12.894-66.349-25.096-91.314-2.533
			c-9.843,8.931-15.097,20.131-15.541,33.188c-1.151,32.759,27.875,63.858,31.165,67.263c1.349,1.414,3.141,2.104,4.95,2.104
			c1.735,0,3.437-0.624,4.777-1.906c2.746-2.632,2.828-7.006,0.206-9.77c-10.526-10.902-28.097-35.225-27.333-57.215
			c0.354-9.356,3.939-17.021,11.052-23.467c18.673-16.873,45.768-6.645,77.162,5.247c6.808,2.564,13.773,5.212,20.82,7.614
			l1.669,0.559c26.855,9.193,82.803,28.352,102.069-7.73C1137.259,2582.344,1099.18,2553.335,1097.601,2552.118z M2304.392,2464.3
			l34.708,37.609l21.716-22.086l-14.982,98.459l48.309,4.589l10.228-145.247l-42.059-8.059L2304.392,2464.3z M2534.801,2437.099
			l-68.159-9.966l-42.051,37.232l25.129,42.066l-24.726,21.824l7.622,37.413l50.357,21.313l54.435-15.509l11.182-33.96
			l-18.426-24.635l31.452-25.293L2534.801,2437.099z M2493.737,2554.799l-17.112-1.232l-8.502-16.446l20.911-14.571l16.026,17.794
			L2493.737,2554.799z M2490.234,2501.005l-17.646-22.792l11.083-14.079l22.12-0.985l5.945,20.408L2490.234,2501.005z
			 M1318.44,2251.329c-8.832-8.831-20.467-13.682-32.917-13.682H841.445c-12.434,0-24.093,4.834-32.875,13.583
			c-8.782,8.815-13.601,20.475-13.551,32.925v444.012c-0.049,12.433,4.769,24.094,13.576,32.909
			c8.758,8.748,20.417,13.583,32.851,13.583h444.078c25.664,0,46.55-20.854,46.55-46.475l-0.115-444.029
			C1332.015,2271.787,1327.213,2260.111,1318.44,2251.329z M1285.523,2759.891H841.445c-8.478,0-16.446-3.289-22.366-9.273
			c-5.986-5.971-9.309-13.914-9.234-22.4v-444.062c-0.074-8.503,3.215-16.479,9.234-22.466c5.92-5.986,13.888-9.308,22.366-9.308
			h444.078c8.445,0,16.404,3.354,22.448,9.373c5.979,6.004,9.234,13.962,9.185,22.366l0.049,444.063
			C1317.206,2745.649,1303.021,2759.891,1285.523,2759.891z M2576.557,2473.196l3.651,79.48l50.513,32.596l53.498-16.085l22.3-73.74
			l-20.902-50.883l-60.511-16.313L2576.557,2473.196z M2657.337,2480.498l1.333,46.803l-23,18.436l-17.81-24.388l12.285-44.519
			L2657.337,2480.498z M5370.342,2313.921c-40.554,0-73.528,32.892-73.528,73.364c0,40.57,32.975,73.527,73.528,73.527
			c40.472,0,73.512-32.99,73.512-73.561C5443.854,2346.746,5410.813,2313.921,5370.342,2313.921z M5370.342,2439.646
			c-28.861,0-52.313-23.534-52.313-52.361c0-28.747,23.452-52.216,52.313-52.216c28.813,0,52.297,23.469,52.297,52.216
			C5422.639,2416.112,5399.155,2439.564,5370.342,2439.646z M2506.161,2219.722c-158.181-0.034-286.358,128.176-286.432,286.414
			c0.074,158.175,128.251,286.415,286.432,286.415c158.149,0,286.416-128.24,286.399-286.415
			C2792.577,2347.882,2664.409,2219.688,2506.161,2219.722z M2506.161,2734.005c-125.841,0.067-227.869-101.993-227.869-227.869
			c0-125.939,102.027-227.901,227.869-227.901c125.882,0,227.936,101.962,227.936,227.901
			C2734.097,2632.012,2632.043,2734.072,2506.161,2734.005z M5451.436,2533.404l-6.595,7.58
			c10.46,9.128,19.125,19.687,25.671,31.493l8.865-4.868C5472.189,2554.75,5462.782,2543.237,5451.436,2533.404z M5479.194,2445.025
			l-8.782-4.967c-6.676,11.809-15.31,22.432-25.753,31.461l6.579,7.613C5462.618,2469.265,5472.025,2457.854,5479.194,2445.025z"/>
	</g>
</g>
</svg>
